<svg width="408" height="100" viewBox="0 0 408 100" fill="none" xmlns="http://www.w3.org/2000/svg">
<rect width="100" height="100" fill="black"/>
<mask id="path-2-outside-1_0_1" maskUnits="userSpaceOnUse" x="129" y="14" width="279" height="73" fill="black">
<rect fill="white" x="129" y="14" width="279" height="73"/>
<path d="M156.6 85.152C153.016 85.152 149.88 84.32 147.192 82.656C144.568 80.928 142.552 78.72 141.144 76.032L140.856 84H130.104V15.84H141.432V39.936C142.712 37.632 144.664 35.68 147.288 34.08C149.976 32.416 153.08 31.584 156.6 31.584C160.888 31.584 164.6 32.672 167.736 34.848C170.872 36.96 173.272 40.032 174.936 44.064C176.664 48.032 177.528 52.8 177.528 58.368C177.528 63.936 176.664 68.736 174.936 72.768C173.272 76.736 170.872 79.808 167.736 81.984C164.6 84.096 160.888 85.152 156.6 85.152ZM153.912 74.976C157.688 74.976 160.6 73.536 162.648 70.656C164.696 67.712 165.72 63.616 165.72 58.368C165.72 53.12 164.696 49.056 162.648 46.176C160.6 43.232 157.752 41.76 154.104 41.76C151.48 41.76 149.208 42.432 147.288 43.776C145.432 45.056 143.992 46.944 142.968 49.44C141.944 51.872 141.432 54.848 141.432 58.368C141.432 61.824 141.944 64.8 142.968 67.296C144.056 69.728 145.528 71.616 147.384 72.96C149.24 74.304 151.416 74.976 153.912 74.976ZM205.043 84V31.2C205.043 29.28 204.499 27.776 203.411 26.688C202.387 25.6 200.883 25.056 198.899 25.056H187.475V15.84H200.627C205.811 15.84 209.715 17.184 212.339 19.872C215.027 22.496 216.371 26.432 216.371 31.68V84H205.043ZM185.555 84V74.784H233.171V84H185.555ZM259.821 85.152C256.621 85.152 253.741 84.576 251.181 83.424C248.621 82.272 246.573 80.64 245.037 78.528C243.501 76.352 242.733 73.792 242.733 70.848C242.733 66.496 244.077 63.136 246.765 60.768C249.517 58.336 253.453 56.576 258.573 55.488L274.605 52.128C274.605 48.544 273.837 45.824 272.301 43.968C270.829 42.048 268.493 41.088 265.293 41.088C262.349 41.088 260.077 41.792 258.477 43.2C256.877 44.608 255.821 46.464 255.309 48.768L243.501 48.096C244.461 43.168 246.829 39.2 250.605 36.192C254.445 33.12 259.277 31.584 265.101 31.584C272.077 31.584 277.293 33.44 280.749 37.152C284.205 40.864 285.933 46.048 285.933 52.704V71.808C285.933 73.088 286.189 73.984 286.701 74.496C287.213 74.944 287.917 75.168 288.813 75.168H291.309V84C290.925 84.064 290.285 84.128 289.389 84.192C288.557 84.32 287.693 84.384 286.797 84.384C284.365 84.384 282.285 83.968 280.557 83.136C278.893 82.304 277.613 81.056 276.717 79.392C275.821 77.664 275.341 75.552 275.277 73.056H276.717C276.397 75.36 275.469 77.44 273.933 79.296C272.397 81.088 270.413 82.528 267.981 83.616C265.613 84.64 262.893 85.152 259.821 85.152ZM261.837 76.32C264.589 76.32 266.925 75.84 268.845 74.88C270.765 73.856 272.205 72.448 273.165 70.656C274.125 68.8 274.605 66.592 274.605 64.032V60.576L261.837 63.264C259.085 63.776 257.165 64.608 256.077 65.76C255.053 66.848 254.541 68.32 254.541 70.176C254.541 72.096 255.181 73.6 256.461 74.688C257.741 75.776 259.533 76.32 261.837 76.32ZM302.984 84V32.736H313.352L313.736 46.464L312.584 45.792C313.16 42.528 314.248 39.872 315.848 37.824C317.448 35.712 319.4 34.144 321.704 33.12C324.072 32.096 326.632 31.584 329.384 31.584C333.16 31.584 336.264 32.416 338.696 34.08C341.128 35.744 342.952 38.048 344.167 40.992C345.384 43.872 345.992 47.168 345.992 50.88V84H334.664V53.568C334.664 49.472 333.896 46.4 332.36 44.352C330.888 42.304 328.616 41.28 325.544 41.28C323.496 41.28 321.608 41.76 319.88 42.72C318.216 43.68 316.872 45.12 315.848 47.04C314.824 48.896 314.312 51.2 314.312 53.952V84H302.984ZM383.106 85.152C378.242 85.152 373.986 84.032 370.338 81.792C366.69 79.552 363.842 76.448 361.794 72.48C359.746 68.448 358.722 63.744 358.722 58.368C358.722 52.992 359.746 48.32 361.794 44.352C363.842 40.32 366.69 37.184 370.338 34.944C373.986 32.704 378.242 31.584 383.106 31.584C387.074 31.584 390.626 32.352 393.762 33.888C396.962 35.424 399.586 37.632 401.634 40.512C403.746 43.328 405.09 46.688 405.666 50.592L394.242 51.264C393.538 48.192 392.226 45.856 390.306 44.256C388.386 42.592 386.018 41.76 383.202 41.76C379.234 41.76 376.13 43.264 373.89 46.272C371.65 49.216 370.53 53.248 370.53 58.368C370.53 63.488 371.65 67.552 373.89 70.56C376.13 73.504 379.234 74.976 383.202 74.976C386.018 74.976 388.418 74.112 390.402 72.384C392.45 70.656 393.826 68.128 394.53 64.8L405.954 65.472C405.314 69.44 403.938 72.896 401.826 75.84C399.778 78.784 397.122 81.088 393.858 82.752C390.658 84.352 387.074 85.152 383.106 85.152Z"/>
</mask>
<path d="M156.6 85.152C153.016 85.152 149.88 84.32 147.192 82.656C144.568 80.928 142.552 78.72 141.144 76.032L140.856 84H130.104V15.84H141.432V39.936C142.712 37.632 144.664 35.68 147.288 34.08C149.976 32.416 153.08 31.584 156.6 31.584C160.888 31.584 164.6 32.672 167.736 34.848C170.872 36.96 173.272 40.032 174.936 44.064C176.664 48.032 177.528 52.8 177.528 58.368C177.528 63.936 176.664 68.736 174.936 72.768C173.272 76.736 170.872 79.808 167.736 81.984C164.6 84.096 160.888 85.152 156.6 85.152ZM153.912 74.976C157.688 74.976 160.6 73.536 162.648 70.656C164.696 67.712 165.72 63.616 165.72 58.368C165.72 53.12 164.696 49.056 162.648 46.176C160.6 43.232 157.752 41.76 154.104 41.76C151.48 41.76 149.208 42.432 147.288 43.776C145.432 45.056 143.992 46.944 142.968 49.44C141.944 51.872 141.432 54.848 141.432 58.368C141.432 61.824 141.944 64.8 142.968 67.296C144.056 69.728 145.528 71.616 147.384 72.96C149.24 74.304 151.416 74.976 153.912 74.976ZM205.043 84V31.2C205.043 29.28 204.499 27.776 203.411 26.688C202.387 25.6 200.883 25.056 198.899 25.056H187.475V15.84H200.627C205.811 15.84 209.715 17.184 212.339 19.872C215.027 22.496 216.371 26.432 216.371 31.68V84H205.043ZM185.555 84V74.784H233.171V84H185.555ZM259.821 85.152C256.621 85.152 253.741 84.576 251.181 83.424C248.621 82.272 246.573 80.64 245.037 78.528C243.501 76.352 242.733 73.792 242.733 70.848C242.733 66.496 244.077 63.136 246.765 60.768C249.517 58.336 253.453 56.576 258.573 55.488L274.605 52.128C274.605 48.544 273.837 45.824 272.301 43.968C270.829 42.048 268.493 41.088 265.293 41.088C262.349 41.088 260.077 41.792 258.477 43.2C256.877 44.608 255.821 46.464 255.309 48.768L243.501 48.096C244.461 43.168 246.829 39.2 250.605 36.192C254.445 33.12 259.277 31.584 265.101 31.584C272.077 31.584 277.293 33.44 280.749 37.152C284.205 40.864 285.933 46.048 285.933 52.704V71.808C285.933 73.088 286.189 73.984 286.701 74.496C287.213 74.944 287.917 75.168 288.813 75.168H291.309V84C290.925 84.064 290.285 84.128 289.389 84.192C288.557 84.32 287.693 84.384 286.797 84.384C284.365 84.384 282.285 83.968 280.557 83.136C278.893 82.304 277.613 81.056 276.717 79.392C275.821 77.664 275.341 75.552 275.277 73.056H276.717C276.397 75.36 275.469 77.44 273.933 79.296C272.397 81.088 270.413 82.528 267.981 83.616C265.613 84.64 262.893 85.152 259.821 85.152ZM261.837 76.32C264.589 76.32 266.925 75.84 268.845 74.88C270.765 73.856 272.205 72.448 273.165 70.656C274.125 68.8 274.605 66.592 274.605 64.032V60.576L261.837 63.264C259.085 63.776 257.165 64.608 256.077 65.76C255.053 66.848 254.541 68.32 254.541 70.176C254.541 72.096 255.181 73.6 256.461 74.688C257.741 75.776 259.533 76.32 261.837 76.32ZM302.984 84V32.736H313.352L313.736 46.464L312.584 45.792C313.16 42.528 314.248 39.872 315.848 37.824C317.448 35.712 319.4 34.144 321.704 33.12C324.072 32.096 326.632 31.584 329.384 31.584C333.16 31.584 336.264 32.416 338.696 34.08C341.128 35.744 342.952 38.048 344.167 40.992C345.384 43.872 345.992 47.168 345.992 50.88V84H334.664V53.568C334.664 49.472 333.896 46.4 332.36 44.352C330.888 42.304 328.616 41.28 325.544 41.28C323.496 41.28 321.608 41.76 319.88 42.72C318.216 43.68 316.872 45.12 315.848 47.04C314.824 48.896 314.312 51.2 314.312 53.952V84H302.984ZM383.106 85.152C378.242 85.152 373.986 84.032 370.338 81.792C366.69 79.552 363.842 76.448 361.794 72.48C359.746 68.448 358.722 63.744 358.722 58.368C358.722 52.992 359.746 48.32 361.794 44.352C363.842 40.32 366.69 37.184 370.338 34.944C373.986 32.704 378.242 31.584 383.106 31.584C387.074 31.584 390.626 32.352 393.762 33.888C396.962 35.424 399.586 37.632 401.634 40.512C403.746 43.328 405.09 46.688 405.666 50.592L394.242 51.264C393.538 48.192 392.226 45.856 390.306 44.256C388.386 42.592 386.018 41.76 383.202 41.76C379.234 41.76 376.13 43.264 373.89 46.272C371.65 49.216 370.53 53.248 370.53 58.368C370.53 63.488 371.65 67.552 373.89 70.56C376.13 73.504 379.234 74.976 383.202 74.976C386.018 74.976 388.418 74.112 390.402 72.384C392.45 70.656 393.826 68.128 394.53 64.8L405.954 65.472C405.314 69.44 403.938 72.896 401.826 75.84C399.778 78.784 397.122 81.088 393.858 82.752C390.658 84.352 387.074 85.152 383.106 85.152Z" fill="black"/>
<path d="M147.192 82.656L146.642 83.4912L146.654 83.4989L146.666 83.5063L147.192 82.656ZM141.144 76.032L142.03 75.568L140.281 72.2289L140.145 75.9959L141.144 76.032ZM140.856 84V85H141.821L141.855 84.0361L140.856 84ZM130.104 84H129.104V85H130.104V84ZM130.104 15.84V14.84H129.104V15.84H130.104ZM141.432 15.84H142.432V14.84H141.432V15.84ZM141.432 39.936H140.432V43.7951L142.306 40.4216L141.432 39.936ZM147.288 34.08L147.809 34.9338L147.814 34.9303L147.288 34.08ZM167.736 34.848L167.166 35.6697L167.177 35.6774L167.736 34.848ZM174.936 44.064L174.012 44.4455L174.015 44.4544L174.019 44.4633L174.936 44.064ZM174.936 72.768L174.017 72.3741L174.014 72.3813L174.936 72.768ZM167.736 81.984L168.295 82.8135L168.306 82.8056L167.736 81.984ZM162.648 70.656L163.463 71.2356L163.469 71.2271L162.648 70.656ZM162.648 46.176L161.827 46.7471L161.833 46.7555L162.648 46.176ZM147.288 43.776L147.856 44.5992L147.861 44.5952L147.288 43.776ZM142.968 49.44L143.89 49.8281L143.893 49.8196L142.968 49.44ZM142.968 67.296L142.043 67.6756L142.049 67.6901L142.055 67.7044L142.968 67.296ZM147.384 72.96L146.797 73.7699L146.797 73.7699L147.384 72.96ZM156.6 85.152V84.152C153.176 84.152 150.228 83.3593 147.718 81.8057L147.192 82.656L146.666 83.5063C149.532 85.2807 152.856 86.152 156.6 86.152V85.152ZM147.192 82.656L147.742 81.8208C145.254 80.1826 143.356 78.1004 142.03 75.568L141.144 76.032L140.258 76.496C141.748 79.3396 143.882 81.6734 146.642 83.4912L147.192 82.656ZM141.144 76.032L140.145 75.9959L139.857 83.9639L140.856 84L141.855 84.0361L142.143 76.0681L141.144 76.032ZM140.856 84V83H130.104V84V85H140.856V84ZM130.104 84H131.104V15.84H130.104H129.104V84H130.104ZM130.104 15.84V16.84H141.432V15.84V14.84H130.104V15.84ZM141.432 15.84H140.432V39.936H141.432H142.432V15.84H141.432ZM141.432 39.936L142.306 40.4216C143.489 38.2923 145.308 36.4588 147.809 34.9338L147.288 34.08L146.767 33.2262C144.02 34.9012 141.935 36.9717 140.558 39.4504L141.432 39.936ZM147.288 34.08L147.814 34.9303C150.327 33.375 153.244 32.584 156.6 32.584V31.584V30.584C152.916 30.584 149.625 31.457 146.762 33.2297L147.288 34.08ZM156.6 31.584V32.584C160.71 32.584 164.218 33.6238 167.166 35.6696L167.736 34.848L168.306 34.0264C164.982 31.7202 161.066 30.584 156.6 30.584V31.584ZM167.736 34.848L167.177 35.6774C170.126 37.6632 172.411 40.5668 174.012 44.4455L174.936 44.064L175.86 43.6825C174.133 39.4972 171.618 36.2568 168.295 34.0186L167.736 34.848ZM174.936 44.064L174.019 44.4633C175.679 48.2748 176.528 52.8996 176.528 58.368H177.528H178.528C178.528 52.7004 177.649 47.7892 175.853 43.6647L174.936 44.064ZM177.528 58.368H176.528C176.528 63.8357 175.679 68.4952 174.017 72.3741L174.936 72.768L175.855 73.1619C177.649 68.9768 178.528 64.0363 178.528 58.368H177.528ZM174.936 72.768L174.014 72.3813C172.414 76.1968 170.126 79.1083 167.166 81.1624L167.736 81.984L168.306 82.8056C171.618 80.5077 174.13 77.2752 175.858 73.1547L174.936 72.768ZM167.736 81.984L167.177 81.1546C164.228 83.1409 160.717 84.152 156.6 84.152V85.152V86.152C161.059 86.152 164.972 85.0511 168.295 82.8134L167.736 81.984ZM153.912 74.976V75.976C157.986 75.976 161.213 74.3999 163.463 71.2355L162.648 70.656L161.833 70.0765C159.987 72.6721 157.39 73.976 153.912 73.976V74.976ZM162.648 70.656L163.469 71.2271C165.676 68.0543 166.72 63.7302 166.72 58.368H165.72H164.72C164.72 63.5018 163.716 67.3697 161.827 70.0849L162.648 70.656ZM165.72 58.368H166.72C166.72 53.0078 165.677 48.7098 163.463 45.5965L162.648 46.176L161.833 46.7555C163.715 49.4022 164.72 53.2322 164.72 58.368H165.72ZM162.648 46.176L163.469 45.6049C161.23 42.3867 158.073 40.76 154.104 40.76V41.76V42.76C157.431 42.76 159.97 44.0773 161.827 46.7471L162.648 46.176ZM154.104 41.76V40.76C151.3 40.76 148.822 41.4812 146.715 42.9568L147.288 43.776L147.861 44.5952C149.594 43.3827 151.66 42.76 154.104 42.76V41.76ZM147.288 43.776L146.72 42.9528C144.676 44.3629 143.126 46.4208 142.043 49.0604L142.968 49.44L143.893 49.8196C144.858 47.4672 146.188 45.7491 147.856 44.5992L147.288 43.776ZM142.968 49.44L142.046 49.0519C140.956 51.6404 140.432 54.7568 140.432 58.368H141.432H142.432C142.432 54.9392 142.932 52.1036 143.89 49.8281L142.968 49.44ZM141.432 58.368H140.432C140.432 61.9192 140.958 65.0305 142.043 67.6756L142.968 67.296L143.893 66.9164C142.93 64.5695 142.432 61.7288 142.432 58.368H141.432ZM142.968 67.296L142.055 67.7044C143.203 70.2702 144.778 72.3073 146.797 73.7699L147.384 72.96L147.971 72.1501C146.278 70.9247 144.909 69.1858 143.881 66.8876L142.968 67.296ZM147.384 72.96L146.797 73.7699C148.839 75.2486 151.225 75.976 153.912 75.976V74.976V73.976C151.607 73.976 149.641 73.3594 147.971 72.1501L147.384 72.96ZM205.043 84H204.043V85H205.043V84ZM203.411 26.688L202.682 27.3734L202.693 27.3844L202.703 27.3951L203.411 26.688ZM187.475 25.056H186.475V26.056H187.475V25.056ZM187.475 15.84V14.84H186.475V15.84H187.475ZM212.339 19.872L211.623 20.5705L211.631 20.5792L211.64 20.5876L212.339 19.872ZM216.371 84V85H217.371V84H216.371ZM185.555 84H184.555V85H185.555V84ZM185.555 74.784V73.784H184.555V74.784H185.555ZM233.171 74.784H234.171V73.784H233.171V74.784ZM233.171 84V85H234.171V84H233.171ZM205.043 84H206.043V31.2H205.043H204.043V84H205.043ZM205.043 31.2H206.043C206.043 29.0842 205.437 27.3004 204.118 25.9809L203.411 26.688L202.703 27.3951C203.56 28.2516 204.043 29.4757 204.043 31.2H205.043ZM203.411 26.688L204.139 26.0026C202.87 24.6541 201.064 24.056 198.899 24.056V25.056V26.056C200.701 26.056 201.903 26.5459 202.682 27.3734L203.411 26.688ZM198.899 25.056V24.056H187.475V25.056V26.056H198.899V25.056ZM187.475 25.056H188.475V15.84H187.475H186.475V25.056H187.475ZM187.475 15.84V16.84H200.627V15.84V14.84H187.475V15.84ZM200.627 15.84V16.84C205.646 16.84 209.25 18.1393 211.623 20.5705L212.339 19.872L213.054 19.1735C210.179 16.2287 205.975 14.84 200.627 14.84V15.84ZM212.339 19.872L211.64 20.5876C214.069 22.9589 215.371 26.5923 215.371 31.68H216.371H217.371C217.371 26.2717 215.984 22.0331 213.037 19.1564L212.339 19.872ZM216.371 31.68H215.371V84H216.371H217.371V31.68H216.371ZM216.371 84V83H205.043V84V85H216.371V84ZM185.555 84H186.555V74.784H185.555H184.555V84H185.555ZM185.555 74.784V75.784H233.171V74.784V73.784H185.555V74.784ZM233.171 74.784H232.171V84H233.171H234.171V74.784H233.171ZM233.171 84V83H185.555V84V85H233.171V84ZM245.037 78.528L244.22 79.1047L244.228 79.1162L245.037 78.528ZM246.765 60.768L247.426 61.5184L247.427 61.5173L246.765 60.768ZM258.573 55.488L258.368 54.5093L258.365 54.5098L258.573 55.488ZM274.605 52.128L274.81 53.1067L275.605 52.9401V52.128H274.605ZM272.301 43.968L271.507 44.5764L271.519 44.5912L271.531 44.6056L272.301 43.968ZM258.477 43.2L259.138 43.9507L259.138 43.9507L258.477 43.2ZM255.309 48.768L255.252 49.7664L256.101 49.8147L256.285 48.9849L255.309 48.768ZM243.501 48.096L242.519 47.9048L242.3 49.0293L243.444 49.0944L243.501 48.096ZM250.605 36.192L251.228 36.9742L251.23 36.9729L250.605 36.192ZM280.749 37.152L281.481 36.4706L281.481 36.4706L280.749 37.152ZM286.701 74.496L285.994 75.2031L286.017 75.2266L286.042 75.2486L286.701 74.496ZM291.309 75.168H292.309V74.168H291.309V75.168ZM291.309 84L291.473 84.9864L292.309 84.8471V84H291.309ZM289.389 84.192L289.318 83.1945L289.277 83.1974L289.237 83.2036L289.389 84.192ZM280.557 83.136L280.11 84.0304L280.116 84.0338L280.123 84.037L280.557 83.136ZM276.717 79.392L275.829 79.8523L275.833 79.8592L275.837 79.8661L276.717 79.392ZM275.277 73.056V72.056H274.251L274.277 73.0816L275.277 73.056ZM276.717 73.056L277.707 73.1936L277.865 72.056H276.717V73.056ZM273.933 79.296L274.692 79.9468L274.698 79.9402L274.703 79.9336L273.933 79.296ZM267.981 83.616L268.378 84.5339L268.389 84.5288L267.981 83.616ZM268.845 74.88L269.292 75.7744L269.304 75.7685L269.316 75.7624L268.845 74.88ZM273.165 70.656L274.046 71.1282L274.05 71.1218L274.053 71.1154L273.165 70.656ZM274.605 60.576H275.605V59.3436L274.399 59.5974L274.605 60.576ZM261.837 63.264L262.02 64.2471L262.031 64.245L262.043 64.2425L261.837 63.264ZM256.077 65.76L255.35 65.0734L255.349 65.0746L256.077 65.76ZM256.461 74.688L257.109 73.9261L257.109 73.9261L256.461 74.688ZM259.821 85.152V84.152C256.743 84.152 254.005 83.5984 251.591 82.5121L251.181 83.424L250.771 84.3359C253.477 85.5536 256.499 86.152 259.821 86.152V85.152ZM251.181 83.424L251.591 82.5121C249.178 81.426 247.272 79.9006 245.846 77.9398L245.037 78.528L244.228 79.1162C245.874 81.3794 248.064 83.118 250.771 84.3359L251.181 83.424ZM245.037 78.528L245.854 77.9513C244.45 75.9617 243.733 73.6082 243.733 70.848H242.733H241.733C241.733 73.9758 242.552 76.7423 244.22 79.1047L245.037 78.528ZM242.733 70.848H243.733C243.733 66.716 244.999 63.6562 247.426 61.5184L246.765 60.768L246.104 60.0176C243.155 62.6158 241.733 66.276 241.733 70.848H242.733ZM246.765 60.768L247.427 61.5173C250.007 59.2379 253.762 57.5327 258.781 56.4662L258.573 55.488L258.365 54.5098C253.144 55.6193 249.027 57.4341 246.103 60.0187L246.765 60.768ZM258.573 55.488L258.778 56.4667L274.81 53.1067L274.605 52.128L274.4 51.1493L258.368 54.5093L258.573 55.488ZM274.605 52.128H275.605C275.605 48.4208 274.813 45.4351 273.071 43.3304L272.301 43.968L271.531 44.6056C272.861 46.2129 273.605 48.6672 273.605 52.128H274.605ZM272.301 43.968L273.095 43.3596C271.376 41.1176 268.695 40.088 265.293 40.088V41.088V42.088C268.291 42.088 270.282 42.9784 271.507 44.5764L272.301 43.968ZM265.293 41.088V40.088C262.199 40.088 259.658 40.8284 257.816 42.4493L258.477 43.2L259.138 43.9507C260.496 42.7556 262.499 42.088 265.293 42.088V41.088ZM258.477 43.2L257.816 42.4493C256.04 44.0123 254.886 46.0635 254.333 48.5511L255.309 48.768L256.285 48.9849C256.756 46.8645 257.714 45.2037 259.138 43.9507L258.477 43.2ZM255.309 48.768L255.366 47.7696L243.558 47.0976L243.501 48.096L243.444 49.0944L255.252 49.7664L255.309 48.768ZM243.501 48.096L244.483 48.2872C245.399 43.5824 247.646 39.8277 251.228 36.9742L250.605 36.192L249.982 35.4098C246.012 38.5723 243.523 42.7536 242.519 47.9048L243.501 48.096ZM250.605 36.192L251.23 36.9729C254.861 34.0677 259.461 32.584 265.101 32.584V31.584V30.584C259.093 30.584 254.029 32.1723 249.98 35.4111L250.605 36.192ZM265.101 31.584V32.584C271.907 32.584 276.813 34.3919 280.017 37.8334L280.749 37.152L281.481 36.4706C277.773 32.4881 272.247 30.584 265.101 30.584V31.584ZM280.749 37.152L280.017 37.8334C283.252 41.3084 284.933 46.2197 284.933 52.704H285.933H286.933C286.933 45.8763 285.158 40.4196 281.481 36.4706L280.749 37.152ZM285.933 52.704H284.933V71.808H285.933H286.933V52.704H285.933ZM285.933 71.808H284.933C284.933 73.1657 285.194 74.4032 285.994 75.2031L286.701 74.496L287.408 73.7889C287.184 73.5648 286.933 73.0103 286.933 71.808H285.933ZM286.701 74.496L286.042 75.2486C286.788 75.9009 287.753 76.168 288.813 76.168V75.168V74.168C288.081 74.168 287.638 73.9871 287.36 73.7434L286.701 74.496ZM288.813 75.168V76.168H291.309V75.168V74.168H288.813V75.168ZM291.309 75.168H290.309V84H291.309H292.309V75.168H291.309ZM291.309 84L291.145 83.0136C290.811 83.0692 290.212 83.1307 289.318 83.1945L289.389 84.192L289.46 85.1895C290.358 85.1253 291.039 85.0588 291.473 84.9864L291.309 84ZM289.389 84.192L289.237 83.2036C288.458 83.3234 287.645 83.384 286.797 83.384V84.384V85.384C287.741 85.384 288.656 85.3166 289.541 85.1804L289.389 84.192ZM286.797 84.384V83.384C284.476 83.384 282.552 82.9868 280.991 82.235L280.557 83.136L280.123 84.037C282.018 84.9492 284.254 85.384 286.797 85.384V84.384ZM280.557 83.136L281.004 82.2416C279.528 81.5033 278.397 80.4036 277.597 78.9179L276.717 79.392L275.837 79.8661C276.829 81.7084 278.258 83.1047 280.11 84.0304L280.557 83.136ZM276.717 79.392L277.605 78.9317C276.795 77.3707 276.338 75.4163 276.277 73.0304L275.277 73.056L274.277 73.0816C274.344 75.6877 274.847 77.9573 275.829 79.8523L276.717 79.392ZM275.277 73.056V74.056H276.717V73.056V72.056H275.277V73.056ZM276.717 73.056L275.727 72.9184C275.433 75.0318 274.585 76.9401 273.163 78.6584L273.933 79.296L274.703 79.9336C276.353 77.9399 277.361 75.6882 277.707 73.1936L276.717 73.056ZM273.933 79.296L273.174 78.6452C271.746 80.3114 269.887 81.6677 267.573 82.7032L267.981 83.616L268.389 84.5288C270.939 83.3883 273.048 81.8646 274.692 79.9468L273.933 79.296ZM267.981 83.616L267.584 82.6981C265.363 83.6586 262.782 84.152 259.821 84.152V85.152V86.152C263.004 86.152 265.863 85.6214 268.378 84.5339L267.981 83.616ZM261.837 76.32V77.32C264.702 77.32 267.2 76.8206 269.292 75.7744L268.845 74.88L268.398 73.9856C266.65 74.8594 264.476 75.32 261.837 75.32V76.32ZM268.845 74.88L269.316 75.7624C271.397 74.6522 272.986 73.107 274.046 71.1282L273.165 70.656L272.284 70.1838C271.424 71.789 270.133 73.0598 268.374 73.9976L268.845 74.88ZM273.165 70.656L274.053 71.1154C275.101 69.0889 275.605 66.7164 275.605 64.032H274.605H273.605C273.605 66.4676 273.149 68.5111 272.277 70.1966L273.165 70.656ZM274.605 64.032H275.605V60.576H274.605H273.605V64.032H274.605ZM274.605 60.576L274.399 59.5974L261.631 62.2854L261.837 63.264L262.043 64.2425L274.811 61.5545L274.605 60.576ZM261.837 63.264L261.654 62.2809C258.835 62.8053 256.658 63.6884 255.35 65.0734L256.077 65.76L256.804 66.4466C257.672 65.5276 259.335 64.7467 262.02 64.2471L261.837 63.264ZM256.077 65.76L255.349 65.0746C254.11 66.3904 253.541 68.13 253.541 70.176H254.541H255.541C255.541 68.51 255.996 67.3056 256.805 66.4454L256.077 65.76ZM254.541 70.176H253.541C253.541 72.3426 254.276 74.1436 255.813 75.4499L256.461 74.688L257.109 73.9261C256.086 73.0564 255.541 71.8494 255.541 70.176H254.541ZM256.461 74.688L255.813 75.4499C257.332 76.7404 259.384 77.32 261.837 77.32V76.32V75.32C259.682 75.32 258.15 74.8116 257.109 73.9261L256.461 74.688ZM302.984 84H301.984V85H302.984V84ZM302.984 32.736V31.736H301.984V32.736H302.984ZM313.352 32.736L314.351 32.708L314.324 31.736H313.352V32.736ZM313.736 46.464L313.232 47.3278L314.785 48.2341L314.735 46.436L313.736 46.464ZM312.584 45.792L311.599 45.6182L311.478 46.3046L312.08 46.6558L312.584 45.792ZM315.848 37.824L316.636 38.4396L316.64 38.4338L316.645 38.4279L315.848 37.824ZM321.704 33.12L321.307 32.2021L321.297 32.2062L321.704 33.12ZM338.696 34.08L339.26 33.2547L339.26 33.2547L338.696 34.08ZM344.167 40.992L343.243 41.3738L343.246 41.381L344.167 40.992ZM345.992 84V85H346.992V84H345.992ZM334.664 84H333.664V85H334.664V84ZM332.36 44.352L331.547 44.9356L331.553 44.9439L331.56 44.952L332.36 44.352ZM319.88 42.72L319.394 41.8458L319.387 41.8498L319.38 41.8538L319.88 42.72ZM315.848 47.04L316.723 47.5231L316.727 47.5169L316.73 47.5106L315.848 47.04ZM314.312 84V85H315.312V84H314.312ZM302.984 84H303.984V32.736H302.984H301.984V84H302.984ZM302.984 32.736V33.736H313.352V32.736V31.736H302.984V32.736ZM313.352 32.736L312.352 32.764L312.736 46.492L313.736 46.464L314.735 46.436L314.351 32.708L313.352 32.736ZM313.736 46.464L314.239 45.6002L313.087 44.9282L312.584 45.792L312.08 46.6558L313.232 47.3278L313.736 46.464ZM312.584 45.792L313.568 45.9658C314.123 42.8197 315.16 40.328 316.636 38.4396L315.848 37.824L315.059 37.2084C313.335 39.416 312.196 42.2363 311.599 45.6182L312.584 45.792ZM315.848 37.824L316.645 38.4279C318.148 36.4434 319.968 34.9857 322.11 34.0338L321.704 33.12L321.297 32.2062C318.831 33.3023 316.747 34.9806 315.05 37.2201L315.848 37.824ZM321.704 33.12L322.1 34.0379C324.335 33.0716 326.759 32.584 329.384 32.584V31.584V30.584C326.504 30.584 323.808 31.1204 321.307 32.2021L321.704 33.12ZM329.384 31.584V32.584C333.014 32.584 335.906 33.3833 338.131 34.9053L338.696 34.08L339.26 33.2547C336.621 31.4487 333.305 30.584 329.384 30.584V31.584ZM338.696 34.08L338.131 34.9053C340.389 36.4506 342.095 38.5942 343.243 41.3738L344.167 40.992L345.092 40.6102C343.808 37.5018 341.866 35.0374 339.26 33.2547L338.696 34.08ZM344.167 40.992L343.246 41.381C344.401 44.1171 344.992 47.277 344.992 50.88H345.992H346.992C346.992 47.059 346.366 43.6269 345.089 40.603L344.167 40.992ZM345.992 50.88H344.992V84H345.992H346.992V50.88H345.992ZM345.992 84V83H334.664V84V85H345.992V84ZM334.664 84H335.664V53.568H334.664H333.664V84H334.664ZM334.664 53.568H335.664C335.664 49.3758 334.883 46.0494 333.16 43.752L332.36 44.352L331.56 44.952C332.908 46.7506 333.664 49.5682 333.664 53.568H334.664ZM332.36 44.352L333.172 43.7684C331.47 41.4007 328.858 40.28 325.544 40.28V41.28V42.28C328.373 42.28 330.305 43.2073 331.547 44.9356L332.36 44.352ZM325.544 41.28V40.28C323.332 40.28 321.276 40.8003 319.394 41.8458L319.88 42.72L320.365 43.5942C321.939 42.7197 323.659 42.28 325.544 42.28V41.28ZM319.88 42.72L319.38 41.8538C317.533 42.9193 316.065 44.5068 314.965 46.5694L315.848 47.04L316.73 47.5106C317.678 45.7332 318.898 44.4407 320.379 43.5862L319.88 42.72ZM315.848 47.04L314.972 46.5569C313.846 48.5985 313.312 51.08 313.312 53.952H314.312H315.312C315.312 51.32 315.801 49.1935 316.723 47.5231L315.848 47.04ZM314.312 53.952H313.312V84H314.312H315.312V53.952H314.312ZM314.312 84V83H302.984V84V85H314.312V84ZM370.338 81.792L369.815 82.6442L369.815 82.6442L370.338 81.792ZM361.794 72.48L360.902 72.9329L360.905 72.9386L361.794 72.48ZM361.794 44.352L362.683 44.8107L362.686 44.8049L361.794 44.352ZM370.338 34.944L369.815 34.0918L369.815 34.0918L370.338 34.944ZM393.762 33.888L393.322 34.7861L393.329 34.7895L393.762 33.888ZM401.634 40.512L400.819 41.0915L400.826 41.1019L400.834 41.112L401.634 40.512ZM405.666 50.592L405.725 51.5903L406.815 51.5262L406.655 50.446L405.666 50.592ZM394.242 51.264L393.267 51.4874L393.456 52.3119L394.301 52.2623L394.242 51.264ZM390.306 44.256L389.651 45.0117L389.658 45.018L389.666 45.0242L390.306 44.256ZM373.89 46.272L374.686 46.8776L374.692 46.8693L373.89 46.272ZM373.89 70.56L373.088 71.1573L373.094 71.1655L373.89 70.56ZM390.402 72.384L389.757 71.6197L389.751 71.6248L389.745 71.6299L390.402 72.384ZM394.53 64.8L394.589 63.8017L393.73 63.7512L393.552 64.593L394.53 64.8ZM405.954 65.472L406.941 65.6312L407.117 64.5387L406.013 64.4737L405.954 65.472ZM401.826 75.84L401.013 75.2571L401.009 75.263L401.005 75.2689L401.826 75.84ZM393.858 82.752L394.305 83.6465L394.312 83.6429L393.858 82.752ZM383.106 85.152V84.152C378.401 84.152 374.331 83.0705 370.861 80.9398L370.338 81.792L369.815 82.6442C373.641 84.9935 378.083 86.152 383.106 86.152V85.152ZM370.338 81.792L370.861 80.9398C367.376 78.7995 364.651 75.8346 362.683 72.0214L361.794 72.48L360.905 72.9386C363.033 77.0614 366.004 80.3045 369.815 82.6442L370.338 81.792ZM361.794 72.48L362.686 72.0271C360.721 68.1596 359.722 63.6161 359.722 58.368H358.722H357.722C357.722 63.8719 358.771 68.7364 360.902 72.9329L361.794 72.48ZM358.722 58.368H359.722C359.722 53.1193 360.721 48.6107 362.683 44.8106L361.794 44.352L360.905 43.8934C358.771 48.0293 357.722 52.8647 357.722 58.368H358.722ZM361.794 44.352L362.686 44.8049C364.655 40.9277 367.38 37.9341 370.861 35.7962L370.338 34.944L369.815 34.0918C366 36.4339 363.029 39.7123 360.902 43.8991L361.794 44.352ZM370.338 34.944L370.861 35.7962C374.331 33.6655 378.401 32.584 383.106 32.584V31.584V30.584C378.083 30.584 373.641 31.7425 369.815 34.0918L370.338 34.944ZM383.106 31.584V32.584C386.942 32.584 390.341 33.3257 393.322 34.7861L393.762 33.888L394.202 32.9899C390.911 31.3782 387.206 30.584 383.106 30.584V31.584ZM393.762 33.888L393.329 34.7895C396.377 36.2526 398.87 38.3501 400.819 41.0915L401.634 40.512L402.449 39.9325C400.302 36.9139 397.547 34.5954 394.195 32.9865L393.762 33.888ZM401.634 40.512L400.834 41.112C402.834 43.7793 404.122 46.9784 404.677 50.738L405.666 50.592L406.655 50.446C406.058 46.3976 404.658 42.8767 402.434 39.912L401.634 40.512ZM405.666 50.592L405.607 49.5937L394.183 50.2657L394.242 51.264L394.301 52.2623L405.725 51.5903L405.666 50.592ZM394.242 51.264L395.217 51.0406C394.477 47.8118 393.074 45.2609 390.946 43.4878L390.306 44.256L389.666 45.0242C391.378 46.4511 392.599 48.5722 393.267 51.4874L394.242 51.264ZM390.306 44.256L390.961 43.5003C388.839 41.6613 386.231 40.76 383.202 40.76V41.76V42.76C385.805 42.76 387.933 43.5227 389.651 45.0117L390.306 44.256ZM383.202 41.76V40.76C378.939 40.76 375.529 42.3966 373.088 45.6747L373.89 46.272L374.692 46.8693C376.731 44.1314 379.529 42.76 383.202 42.76V41.76ZM373.89 46.272L373.094 45.6665C370.679 48.8404 369.53 53.1117 369.53 58.368H370.53H371.53C371.53 53.3843 372.621 49.5916 374.686 46.8775L373.89 46.272ZM370.53 58.368H369.53C369.53 63.6259 370.68 67.9235 373.088 71.1573L373.89 70.56L374.692 69.9627C372.62 67.1805 371.53 63.3501 371.53 58.368H370.53ZM373.89 70.56L373.094 71.1655C375.539 74.3783 378.948 75.976 383.202 75.976V74.976V73.976C379.52 73.976 376.721 72.6297 374.686 69.9545L373.89 70.56ZM383.202 74.976V75.976C386.241 75.976 388.879 75.0363 391.059 73.1381L390.402 72.384L389.745 71.6299C387.957 73.1877 385.795 73.976 383.202 73.976V74.976ZM390.402 72.384L391.047 73.1483C393.306 71.242 394.771 68.4932 395.508 65.007L394.53 64.8L393.552 64.593C392.881 67.7628 391.594 70.07 389.757 71.6197L390.402 72.384ZM394.53 64.8L394.471 65.7983L405.895 66.4703L405.954 65.472L406.013 64.4737L394.589 63.8017L394.53 64.8ZM405.954 65.472L404.967 65.3128C404.349 69.1448 403.026 72.4521 401.013 75.2571L401.826 75.84L402.639 76.4229C404.85 73.3399 406.279 69.7352 406.941 65.6312L405.954 65.472ZM401.826 75.84L401.005 75.2689C399.053 78.0747 396.524 80.2702 393.404 81.8611L393.858 82.752L394.312 83.6429C397.72 81.9058 400.503 79.4933 402.647 76.4111L401.826 75.84ZM393.858 82.752L393.411 81.8576C390.364 83.3809 386.936 84.152 383.106 84.152V85.152V86.152C387.212 86.152 390.952 85.3231 394.305 83.6464L393.858 82.752Z" fill="black" mask="url(#path-2-outside-1_0_1)"/>
</svg>
